<mxfile host="app.diagrams.net" agent="Mozilla/5.0 (Macintosh; Intel Mac OS X 10_15_7) AppleWebKit/537.36 (KHTML, like Gecko) Chrome/138.0.0.0 Safari/537.36" version="27.1.1">
  <diagram name="第 1 页" id="Wm7DjzOjhY3zY5XrvVqz">
    <mxGraphModel dx="1410" dy="775" grid="1" gridSize="10" guides="1" tooltips="1" connect="1" arrows="1" fold="1" page="1" pageScale="1" pageWidth="827" pageHeight="1169" math="0" shadow="0">
      <root>
        <mxCell id="0" />
        <mxCell id="1" parent="0" />
        <mxCell id="tRNVDW8AJXRH3d491mD7-52" value="模拟器自动交易" style="swimlane;childLayout=stackLayout;resizeParent=1;resizeParentMax=0;startSize=20;html=1;" vertex="1" parent="1">
          <mxGeometry x="220" y="110" width="380" height="540" as="geometry" />
        </mxCell>
        <mxCell id="tRNVDW8AJXRH3d491mD7-53" value="trade" style="swimlane;startSize=20;html=1;" vertex="1" parent="tRNVDW8AJXRH3d491mD7-52">
          <mxGeometry y="20" width="130" height="520" as="geometry" />
        </mxCell>
        <mxCell id="tRNVDW8AJXRH3d491mD7-59" value="创建模拟器" style="rounded=1;whiteSpace=wrap;html=1;" vertex="1" parent="tRNVDW8AJXRH3d491mD7-53">
          <mxGeometry x="30" y="55" width="70" height="30" as="geometry" />
        </mxCell>
        <mxCell id="tRNVDW8AJXRH3d491mD7-54" value="task-center-core" style="swimlane;startSize=20;html=1;" vertex="1" parent="tRNVDW8AJXRH3d491mD7-52">
          <mxGeometry x="130" y="20" width="130" height="520" as="geometry" />
        </mxCell>
        <mxCell id="tRNVDW8AJXRH3d491mD7-60" value="创建跟单策略工作流" style="rounded=1;whiteSpace=wrap;html=1;" vertex="1" parent="tRNVDW8AJXRH3d491mD7-54">
          <mxGeometry x="40" y="55" width="70" height="30" as="geometry" />
        </mxCell>
        <mxCell id="tRNVDW8AJXRH3d491mD7-55" value="trigger-center" style="swimlane;startSize=20;html=1;" vertex="1" parent="tRNVDW8AJXRH3d491mD7-52">
          <mxGeometry x="260" y="20" width="120" height="520" as="geometry" />
        </mxCell>
        <mxCell id="tRNVDW8AJXRH3d491mD7-56" value="" style="shape=actor;whiteSpace=wrap;html=1;" vertex="1" parent="1">
          <mxGeometry x="110" y="160" width="40" height="60" as="geometry" />
        </mxCell>
      </root>
    </mxGraphModel>
  </diagram>
</mxfile>
